Coordinates
version=1
nRows=32
nColumns=30
inDegrees=yes

Units are S.I. units (second, meters, Newtons, ...)
Angles are in degrees.

endheader
time	floatyaw	floatroll	floatpitch	floatx	floaty	floatz	pro_sup_l	deviation_l	flexion_l	cmc_flexion_l	cmc_abduction_l	mp_flexion_l	ip_flexion_l	2mcp_flexion_l	2mcp_abduction_l	2pm_flexion_l	2md_flexion_l	3mcp_flexion_l	3mcp_abduction_l	3pm_flexion_l	3md_flexion_l	4mcp_flexion_l	4mcp_abduction_l	4pm_flexion_l	4md_flexion_l	5mcp_flexion_l	5mcp_abduction_l	5pm_flexion_l	5md_flexion_l
0.005000	-160.147433	-5.066637	-73.570646	-0.064890	-0.135614	-0.113872	90.167255	17.112568	2.974714	17.071826	20.555362	-32.771401	-55.081242	46.964100	16.829800	56.162021	64.074796	50.638687	6.057982	75.361672	56.633706	54.292750	-6.666194	89.315188	71.304877	63.318447	-14.404348	99.393148	70.522028
0.015000	-160.147433	-5.066637	-73.570646	-0.065291	-0.133859	-0.113480	87.592452	16.661283	2.537215	17.548593	20.648642	-33.118606	-55.848938	48.635310	17.027740	55.545684	65.573077	52.393119	6.025629	75.156676	57.368634	56.062685	-6.749263	89.257069	71.918104	64.906503	-14.500367	100.222567	70.803126
0.025000	-160.147433	-5.066637	-73.570646	-0.065628	-0.131634	-0.113309	85.420459	16.107261	1.944285	17.957615	20.823521	-33.433213	-56.539426	50.373422	17.205326	54.841436	66.838008	53.877767	5.975718	74.836477	57.931740	57.260048	-6.828524	89.142422	72.498512	66.003113	-14.607824	100.744558	71.112911
0.035000	-160.147433	-5.066637	-73.570646	-0.065976	-0.129321	-0.113301	83.595732	15.434422	1.436918	18.296350	21.062929	-33.709862	-57.156204	52.152393	17.365025	53.999931	67.855291	55.114101	5.909683	74.431900	58.257873	58.060330	-6.899581	89.033466	72.964475	66.761444	-14.701204	101.031117	71.375391
0.045000	-160.147433	-5.066637	-73.570646	-0.066370	-0.127382	-0.113370	81.978045	14.649666	1.194701	18.575552	21.351881	-33.941769	-57.693420	53.870447	17.501396	53.064578	68.612138	56.131020	5.837253	74.018858	58.348531	58.628386	-6.957289	88.995371	73.273407	67.319508	-14.763958	101.220628	71.538635
0.055000	-160.147433	-5.066637	-73.570646	-0.066782	-0.126169	-0.113441	80.432118	13.790895	1.268012	18.795871	21.676627	-34.111070	-58.125572	55.367872	17.606729	52.151236	69.114610	56.928933	5.770213	73.684767	58.265587	59.049324	-6.997787	89.076960	73.432810	67.749769	-14.790201	101.444120	71.597497
0.065000	-160.147433	-5.066637	-73.570646	-0.067133	-0.125789	-0.113477	78.905158	12.924842	1.581681	18.940471	22.011354	-34.184455	-58.407456	56.473383	17.676128	51.391660	69.392419	57.468844	5.716572	73.485834	58.099098	59.311313	-7.019815	89.286708	73.481811	68.041827	-14.783383	101.759149	71.586117
0.075000	-160.147433	-5.066637	-73.570646	-0.067333	-0.126085	-0.113469	77.447176	12.130478	1.998448	18.985446	22.309800	-34.125678	-58.491538	57.063444	17.710142	50.875253	69.494672	57.694577	5.678343	73.423114	57.932157	59.343565	-7.025025	89.586120	73.464021	68.131296	-14.752861	102.133435	71.551952
0.085000	-160.147433	-5.066637	-73.570646	-0.067318	-0.126736	-0.113428	76.168857	11.474638	2.396804	18.917934	22.512565	-33.920182	-58.354821	57.107530	17.714435	50.618591	69.481518	57.572789	5.653014	73.450131	57.819194	59.081956	-7.017275	89.907329	73.410707	67.956463	-14.709622	102.480493	71.530722
0.095000	-160.147433	-5.066637	-73.570646	-0.067081	-0.127414	-0.113364	75.172445	10.993262	2.718543	18.748418	22.565213	-33.592018	-58.015704	56.676834	17.697470	50.571630	69.412596	57.123664	5.636635	73.502611	57.779984	58.522139	-7.001359	90.182106	73.338654	67.506647	-14.662915	102.714651	71.535334
0.105000	-160.147433	-5.066637	-73.570646	-0.066672	-0.127903	-0.113277	74.499876	10.687444	2.969472	18.509754	22.434089	-33.197231	-57.527607	55.913692	17.667886	50.649228	69.332770	56.423473	5.626277	73.529511	57.803447	57.732651	-6.981804	90.364590	73.254960	66.835812	-14.618941	102.789539	71.558545
0.115000	-160.147433	-5.066637	-73.570646	-0.066168	-0.128140	-0.113164	74.120290	10.533091	3.187482	18.245338	22.110942	-32.797805	-56.954878	54.980149	17.632771	50.767904	69.261115	55.580183	5.620727	73.509292	57.856708	56.827648	-6.962095	90.439711	73.160600	66.040613	-14.581293	102.706206	71.581642
0.125000	-160.147433	-5.066637	-73.570646	-0.065646	-0.128185	-0.113016	73.951627	10.495906	3.405810	17.994809	21.606494	-32.435621	-56.349074	54.011734	17.597060	50.870809	69.191838	54.699115	5.619748	73.447984	57.898073	55.921230	-6.944360	90.419567	73.051485	65.222216	-14.551970	102.499123	71.583264
0.135000	-160.147433	-5.066637	-73.570646	-0.065160	-0.128153	-0.112833	73.897338	10.543640	3.632620	17.784846	20.939272	-32.123046	-55.739499	53.093664	17.563637	50.933945	69.108376	53.857318	5.623034	73.365693	57.891679	55.090523	-6.929392	90.333164	72.920072	64.454602	-14.532131	102.215156	71.546881
0.145000	-160.147433	-5.066637	-73.570646	-0.064731	-0.128148	-0.112620	73.879918	10.652124	3.851370	17.627329	20.126855	-31.851535	-55.138355	52.261163	17.533727	50.957445	69.000854	53.095452	5.629727	73.281433	57.818964	54.363223	-6.916977	90.213741	72.759316	63.771602	-14.522454	101.895631	71.466468
0.155000	-160.147433	-5.066637	-73.570646	-0.064355	-0.128225	-0.112392	73.860134	10.805782	4.033626	17.522470	19.183383	-31.607436	-54.551548	51.514621	17.507431	50.951533	68.874648	52.424244	5.638606	73.203567	57.682594	53.728103	-6.906431	90.087188	72.567364	63.171614	-14.523179	101.565492	71.348675
0.165000	-160.147433	-5.066637	-73.570646	-0.064014	-0.128383	-0.112168	73.838541	10.995058	4.153433	17.463200	18.122763	-31.383334	-53.986615	50.838260	17.484345	50.925848	68.745979	51.836958	5.648537	73.128092	57.502233	53.156088	-6.897148	89.965006	72.349896	62.631594	-14.533871	101.230814	71.209872
0.175000	-160.147433	-5.066637	-73.570646	-0.063688	-0.128584	-0.111967	73.842295	11.213051	4.196915	17.438638	16.964460	-31.180311	-53.454819	50.214647	17.464101	50.885978	68.630088	51.320639	5.658748	73.042937	57.305232	52.619336	-6.888925	89.844044	72.118238	62.122266	-14.553011	100.884249	71.068551
0.185000	-160.147433	-5.066637	-73.570646	-0.063366	-0.128777	-0.111803	73.904781	11.452860	4.165665	17.436469	15.738021	-31.003566	-52.968865	49.632222	17.446610	50.835859	68.531204	50.863009	5.668793	72.934758	57.116587	52.101901	-6.881957	89.712156	71.884254	61.619948	-14.577797	100.515068	70.936577
0.195000	-160.147433	-5.066637	-73.570646	-0.063042	-0.128925	-0.111680	74.047414	11.706439	4.074630	17.444996	14.482710	-30.856619	-52.539004	49.086512	17.431923	50.781523	68.440763	50.455013	5.678354	72.795009	56.951627	51.601481	-6.876606	89.556171	71.655396	61.113119	-14.604581	100.118078	70.814054
0.205000	-160.147433	-5.066637	-73.570646	-0.062722	-0.129012	-0.111595	74.270764	11.965124	3.945977	17.455255	13.240679	-30.738186	-52.169950	48.577630	17.419865	50.731788	68.344278	50.090360	5.687092	72.623249	56.813249	51.124977	-6.873111	89.368149	71.433002	60.603310	-14.629954	99.696793	70.690571
0.215000	-160.147433	-5.066637	-73.570646	-0.062413	-0.129043	-0.111536	74.556715	12.221117	3.801562	17.462678	12.046785	-30.642870	-51.860129	48.107018	17.409779	50.694881	68.231634	49.763720	5.694659	72.427148	56.693943	50.681773	-6.871411	89.147812	71.214490	60.101392	-14.651937	99.260563	70.551815
0.225000	-160.147433	-5.066637	-73.570646	-0.062121	-0.129037	-0.111491	74.877535	12.468598	3.657346	17.467167	10.922213	-30.563926	-51.603197	47.675400	17.400593	50.673718	68.103831	49.469176	5.700843	72.219872	56.581305	50.278294	-6.871151	88.901477	70.997603	59.621636	-14.670528	98.819409	70.387909
0.235000	-160.147433	-5.066637	-73.570646	-0.061849	-0.129016	-0.111451	75.205423	12.703540	3.521831	17.470912	9.877150	-30.495284	-51.390114	47.282074	17.391184	50.663699	67.972028	49.199972	5.705719	72.016165	56.464291	49.915663	-6.871849	88.639204	70.783908	59.175918	-14.687229	98.380960	70.199288
0.245000	-160.147433	-5.066637	-73.570646	-0.061598	-0.128996	-0.111412	75.518365	12.922608	3.397862	17.474892	8.919852	-30.431431	-51.209959	46.924581	17.380801	50.654953	67.849844	48.949559	5.709687	71.828264	56.337239	49.589963	-6.873085	88.371911	70.579122	58.769345	-14.703820	97.951053	69.997078
0.255000	-160.147433	-5.066637	-73.570646	-0.061365	-0.128987	-0.111374	75.802190	13.122575	3.285332	17.476321	8.063298	-30.366267	-51.049699	46.598011	17.369246	50.637809	67.744262	48.712916	5.713329	71.662683	56.200325	49.293643	-6.874611	88.109287	70.389910	58.398021	-14.721154	97.535935	69.797789
0.265000	-160.147433	-5.066637	-73.570646	-0.061146	-0.128991	-0.111340	76.050949	13.301275	3.182855	17.468890	7.322623	-30.293031	-50.895008	46.294265	17.356710	50.608135	67.651772	48.486919	5.717140	71.518915	56.057478	49.017252	-6.876334	87.858481	70.219447	58.050040	-14.738689	97.142827	69.615729
0.275000	-160.147433	-5.066637	-73.570646	-0.060937	-0.129004	-0.111312	76.266906	13.459577	3.088183	17.445746	6.704865	-30.206209	-50.733706	46.002395	17.343411	50.569257	67.562794	48.269470	5.721282	71.390932	55.913905	48.751735	-6.878193	87.623363	70.065034	57.710549	-14.754916	96.777722	69.457738
0.285000	-160.147433	-5.066637	-73.570646	-0.060733	-0.129024	-0.111290	76.459499	13.602622	2.998286	17.403496	6.199462	-30.104353	-50.560694	45.711061	17.329367	50.529616	67.470767	48.058503	5.725527	71.271033	55.774727	48.491407	-6.880041	87.404615	69.919117	57.369651	-14.768296	96.442171	69.322282
0.295000	-160.147433	-5.066637	-73.570646	-0.060534	-0.129046	-0.111274	76.641979	13.738775	2.909949	17.344924	5.777910	-29.991786	-50.380799	45.412832	17.314548	50.498060	67.378267	47.852250	5.729469	71.153988	55.644810	48.236565	-6.881620	87.200906	69.772471	57.029105	-14.778159	96.131830	69.201588
0.305000	-160.147433	-5.066637	-73.570646	-0.060340	-0.129068	-0.111260	76.825929	13.876385	2.820997	17.278691	5.404296	-29.877517	-50.206417	45.108031	17.299261	50.479715	67.295120	47.650743	5.732840	71.038988	55.528764	47.993714	-6.882686	87.010743	69.617491	56.702955	-14.785140	95.838312	69.084932
0.315000	-160.147433	-5.066637	-73.570646	-0.060157	-0.129092	-0.111247	77.016156	14.020177	2.731426	17.215822	5.050339	-29.771456	-50.050316	44.805077	17.284356	50.474567	67.230176	47.456910	5.735721	70.928645	55.429905	47.772179	-6.883192	86.834050	69.450293	56.410397	-14.790953	95.553716	68.962385
